<?xml version="1.0" standalone="no"?>
<!DOCTYPE svg PUBLIC "-//W3C//DTD SVG 20010904//EN"
 "http://www.w3.org/TR/2001/REC-SVG-20010904/DTD/svg10.dtd">
<svg version="1.0" xmlns="http://www.w3.org/2000/svg"
 width="116.000000pt" height="116.000000pt" viewBox="0 0 116.000000 116.000000"
 preserveAspectRatio="xMidYMid meet">
<metadata>
Created by potrace 1.14, written by Peter Selinger 2001-2017
</metadata>
<g transform="translate(0.000000,116.000000) scale(0.100000,-0.100000)"
fill="#000000" stroke="none">
<path d="M566 917 c-25 -6 -56 -27 -90 -60 -46 -45 -55 -50 -93 -48 -91 5
-147 -56 -152 -166 -1 -7 -8 -13 -16 -13 -25 0 -78 -30 -103 -59 -94 -104 -57
-265 74 -321 36 -16 77 -18 355 -18 173 0 330 4 349 9 87 22 153 106 153 194
0 85 -64 174 -140 194 l-38 11 -1 62 c0 72 -16 108 -69 161 -58 58 -134 76
-229 54z"/>
</g>
</svg>
