<svg width="0" height="0" class="hidden">
  <symbol id="logo" viewBox="0 0 172 29"  xmlns="http://www.w3.org/2000/svg">
   <path d="M46.386 18.931C46.518 18.931 46.635 18.982 46.737 19.084L47.691 20.119C47.163 20.773 46.512 21.274 45.738 21.622C44.97 21.97 44.046 22.144 42.966 22.144C42 22.144 41.13 21.979 40.356 21.649C39.588 21.319 38.931 20.86 38.385 20.272C37.839 19.684 37.419 18.982 37.125 18.166C36.837 17.35 36.693 16.459 36.693 15.493C36.693 14.515 36.849 13.621 37.161 12.811C37.473 11.995 37.911 11.293 38.475 10.705C39.045 10.117 39.723 9.661 40.509 9.337C41.295 9.007 42.165 8.842 43.119 8.842C44.067 8.842 44.907 8.998 45.639 9.31C46.377 9.622 47.004 10.03 47.52 10.534L46.71 11.659C46.662 11.731 46.599 11.794 46.521 11.848C46.449 11.902 46.347 11.929 46.215 11.929C46.125 11.929 46.032 11.905 45.936 11.857C45.84 11.803 45.735 11.74 45.621 11.668C45.507 11.59 45.375 11.506 45.225 11.416C45.075 11.326 44.901 11.245 44.703 11.173C44.505 11.095 44.274 11.032 44.01 10.984C43.752 10.93 43.452 10.903 43.11 10.903C42.528 10.903 41.994 11.008 41.508 11.218C41.028 11.422 40.614 11.722 40.266 12.118C39.918 12.508 39.648 12.988 39.456 13.558C39.264 14.122 39.168 14.767 39.168 15.493C39.168 16.225 39.27 16.876 39.474 17.446C39.684 18.016 39.966 18.496 40.32 18.886C40.674 19.276 41.091 19.576 41.571 19.786C42.051 19.99 42.567 20.092 43.119 20.092C43.449 20.092 43.746 20.074 44.01 20.038C44.28 20.002 44.526 19.945 44.748 19.867C44.976 19.789 45.189 19.69 45.387 19.57C45.591 19.444 45.792 19.291 45.99 19.111C46.05 19.057 46.113 19.015 46.179 18.985C46.245 18.949 46.314 18.931 46.386 18.931ZM56.9724 20.002V22H49.3494V8.986H51.7704V20.002H56.9724ZM70.6549 15.493C70.6549 16.447 70.4959 17.332 70.1779 18.148C69.8659 18.958 69.4219 19.66 68.8459 20.254C68.2699 20.848 67.5769 21.313 66.7669 21.649C65.9569 21.979 65.0569 22.144 64.0669 22.144C63.0829 22.144 62.1859 21.979 61.3759 21.649C60.5659 21.313 59.8699 20.848 59.2879 20.254C58.7119 19.66 58.2649 18.958 57.9469 18.148C57.6289 17.332 57.4699 16.447 57.4699 15.493C57.4699 14.539 57.6289 13.657 57.9469 12.847C58.2649 12.031 58.7119 11.326 59.2879 10.732C59.8699 10.138 60.5659 9.676 61.3759 9.346C62.1859 9.01 63.0829 8.842 64.0669 8.842C64.7269 8.842 65.3479 8.92 65.9299 9.076C66.5119 9.226 67.0459 9.442 67.5319 9.724C68.0179 10 68.4529 10.339 68.8369 10.741C69.2269 11.137 69.5569 11.581 69.8269 12.073C70.0969 12.565 70.3009 13.099 70.4389 13.675C70.5829 14.251 70.6549 14.857 70.6549 15.493ZM68.1799 15.493C68.1799 14.779 68.0839 14.14 67.8919 13.576C67.6999 13.006 67.4269 12.523 67.0729 12.127C66.7189 11.731 66.2869 11.428 65.7769 11.218C65.2729 11.008 64.7029 10.903 64.0669 10.903C63.4309 10.903 62.8579 11.008 62.3479 11.218C61.8439 11.428 61.4119 11.731 61.0519 12.127C60.6979 12.523 60.4249 13.006 60.2329 13.576C60.0409 14.14 59.9449 14.779 59.9449 15.493C59.9449 16.207 60.0409 16.849 60.2329 17.419C60.4249 17.983 60.6979 18.463 61.0519 18.859C61.4119 19.249 61.8439 19.549 62.3479 19.759C62.8579 19.969 63.4309 20.074 64.0669 20.074C64.7029 20.074 65.2729 19.969 65.7769 19.759C66.2869 19.549 66.7189 19.249 67.0729 18.859C67.4269 18.463 67.6999 17.983 67.8919 17.419C68.0839 16.849 68.1799 16.207 68.1799 15.493ZM78.019 20.047C78.487 20.047 78.904 19.969 79.27 19.813C79.642 19.657 79.954 19.438 80.206 19.156C80.458 18.874 80.65 18.532 80.782 18.13C80.92 17.728 80.989 17.278 80.989 16.78V8.986H83.41V16.78C83.41 17.554 83.284 18.271 83.032 18.931C82.786 19.585 82.429 20.152 81.961 20.632C81.499 21.106 80.935 21.478 80.269 21.748C79.603 22.012 78.853 22.144 78.019 22.144C77.179 22.144 76.426 22.012 75.76 21.748C75.094 21.478 74.527 21.106 74.059 20.632C73.597 20.152 73.24 19.585 72.988 18.931C72.742 18.271 72.619 17.554 72.619 16.78V8.986H75.04V16.771C75.04 17.269 75.106 17.719 75.238 18.121C75.376 18.523 75.571 18.868 75.823 19.156C76.081 19.438 76.393 19.657 76.759 19.813C77.131 19.969 77.551 20.047 78.019 20.047ZM97.6964 15.493C97.6964 16.447 97.5374 17.323 97.2194 18.121C96.9014 18.919 96.4544 19.606 95.8784 20.182C95.3024 20.758 94.6094 21.205 93.7994 21.523C92.9894 21.841 92.0894 22 91.0994 22H86.1404V8.986H91.0994C92.0894 8.986 92.9894 9.148 93.7994 9.472C94.6094 9.79 95.3024 10.237 95.8784 10.813C96.4544 11.383 96.9014 12.067 97.2194 12.865C97.5374 13.663 97.6964 14.539 97.6964 15.493ZM95.2124 15.493C95.2124 14.779 95.1164 14.14 94.9244 13.576C94.7384 13.006 94.4654 12.526 94.1054 12.136C93.7514 11.74 93.3194 11.437 92.8094 11.227C92.3054 11.017 91.7354 10.912 91.0994 10.912H88.5704V20.074H91.0994C91.7354 20.074 92.3054 19.969 92.8094 19.759C93.3194 19.549 93.7514 19.249 94.1054 18.859C94.4654 18.463 94.7384 17.983 94.9244 17.419C95.1164 16.849 95.2124 16.207 95.2124 15.493ZM104.703 20.11C105.153 20.11 105.531 20.056 105.837 19.948C106.143 19.84 106.386 19.696 106.566 19.516C106.752 19.336 106.884 19.126 106.962 18.886C107.046 18.646 107.088 18.391 107.088 18.121C107.088 17.839 107.043 17.587 106.953 17.365C106.863 17.137 106.722 16.945 106.53 16.789C106.338 16.627 106.089 16.504 105.783 16.42C105.483 16.336 105.12 16.294 104.694 16.294H102.255V20.11H104.703ZM102.255 10.858V14.62H104.181C105.009 14.62 105.633 14.47 106.053 14.17C106.479 13.87 106.692 13.393 106.692 12.739C106.692 12.061 106.5 11.578 106.116 11.29C105.732 11.002 105.132 10.858 104.316 10.858H102.255ZM104.316 8.986C105.168 8.986 105.897 9.067 106.503 9.229C107.109 9.391 107.604 9.622 107.988 9.922C108.378 10.222 108.663 10.585 108.843 11.011C109.023 11.437 109.113 11.917 109.113 12.451C109.113 12.757 109.068 13.051 108.978 13.333C108.888 13.609 108.747 13.87 108.555 14.116C108.369 14.356 108.129 14.575 107.835 14.773C107.547 14.971 107.202 15.139 106.8 15.277C108.588 15.679 109.482 16.645 109.482 18.175C109.482 18.727 109.377 19.237 109.167 19.705C108.957 20.173 108.651 20.578 108.249 20.92C107.847 21.256 107.352 21.52 106.764 21.712C106.176 21.904 105.504 22 104.748 22H99.8338V8.986H104.316ZM116.919 20.047C117.387 20.047 117.804 19.969 118.17 19.813C118.542 19.657 118.854 19.438 119.106 19.156C119.358 18.874 119.55 18.532 119.682 18.13C119.82 17.728 119.889 17.278 119.889 16.78V8.986H122.31V16.78C122.31 17.554 122.184 18.271 121.932 18.931C121.686 19.585 121.329 20.152 120.861 20.632C120.399 21.106 119.835 21.478 119.169 21.748C118.503 22.012 117.753 22.144 116.919 22.144C116.079 22.144 115.326 22.012 114.66 21.748C113.994 21.478 113.427 21.106 112.959 20.632C112.497 20.152 112.14 19.585 111.888 18.931C111.642 18.271 111.519 17.554 111.519 16.78V8.986H113.94V16.771C113.94 17.269 114.006 17.719 114.138 18.121C114.276 18.523 114.471 18.868 114.723 19.156C114.981 19.438 115.293 19.657 115.659 19.813C116.031 19.969 116.451 20.047 116.919 20.047ZM136.597 15.493C136.597 16.447 136.438 17.323 136.12 18.121C135.802 18.919 135.355 19.606 134.779 20.182C134.203 20.758 133.51 21.205 132.7 21.523C131.89 21.841 130.99 22 130 22H125.041V8.986H130C130.99 8.986 131.89 9.148 132.7 9.472C133.51 9.79 134.203 10.237 134.779 10.813C135.355 11.383 135.802 12.067 136.12 12.865C136.438 13.663 136.597 14.539 136.597 15.493ZM134.113 15.493C134.113 14.779 134.017 14.14 133.825 13.576C133.639 13.006 133.366 12.526 133.006 12.136C132.652 11.74 132.22 11.437 131.71 11.227C131.206 11.017 130.636 10.912 130 10.912H127.471V20.074H130C130.636 20.074 131.206 19.969 131.71 19.759C132.22 19.549 132.652 19.249 133.006 18.859C133.366 18.463 133.639 17.983 133.825 17.419C134.017 16.849 134.113 16.207 134.113 15.493ZM149.462 15.475V20.74C148.802 21.226 148.097 21.583 147.347 21.811C146.603 22.033 145.805 22.144 144.953 22.144C143.891 22.144 142.928 21.979 142.064 21.649C141.206 21.319 140.471 20.86 139.859 20.272C139.253 19.684 138.785 18.982 138.455 18.166C138.125 17.35 137.96 16.459 137.96 15.493C137.96 14.515 138.119 13.618 138.437 12.802C138.755 11.986 139.205 11.284 139.787 10.696C140.375 10.108 141.086 9.652 141.92 9.328C142.754 9.004 143.69 8.842 144.728 8.842C145.256 8.842 145.748 8.884 146.204 8.968C146.666 9.052 147.092 9.169 147.482 9.319C147.878 9.463 148.238 9.64 148.562 9.85C148.886 10.06 149.183 10.291 149.453 10.543L148.76 11.641C148.652 11.815 148.511 11.923 148.337 11.965C148.163 12.001 147.974 11.956 147.77 11.83C147.572 11.716 147.374 11.602 147.176 11.488C146.978 11.374 146.756 11.275 146.51 11.191C146.27 11.107 145.997 11.038 145.691 10.984C145.391 10.93 145.043 10.903 144.647 10.903C144.005 10.903 143.423 11.011 142.901 11.227C142.385 11.443 141.944 11.752 141.578 12.154C141.212 12.556 140.93 13.039 140.732 13.603C140.534 14.167 140.435 14.797 140.435 15.493C140.435 16.237 140.54 16.903 140.75 17.491C140.966 18.073 141.266 18.568 141.65 18.976C142.04 19.378 142.508 19.687 143.054 19.903C143.6 20.113 144.209 20.218 144.881 20.218C145.361 20.218 145.79 20.167 146.168 20.065C146.546 19.963 146.915 19.825 147.275 19.651V17.293H145.637C145.481 17.293 145.358 17.251 145.268 17.167C145.184 17.077 145.142 16.969 145.142 16.843V15.475H149.462ZM154.225 10.912V14.521H158.779V16.384H154.225V20.065H160.003V22H151.795V8.986H160.003V10.912H154.225ZM171.238 10.975H167.314V22H164.893V10.975H160.969V8.986H171.238V10.975Z"/>
   <path d="M21.605 13.05C21.605 12.615 21.75 12.18 21.75 11.6C21.75 8.41005 19.14 5.80005 15.95 5.80005C13.63 5.80005 11.745 7.10505 10.73 8.99005C10.44 8.84505 9.86001 8.70005 9.42501 8.70005C7.39501 8.70005 5.80001 10.295 5.80001 12.325C5.80001 12.615 5.80001 12.905 5.94501 13.05C3.33501 13.485 1.45001 15.515 1.45001 18.125C1.45001 20.88 3.77001 23.2 6.52501 23.2H21.025C23.78 23.2 26.1 20.88 26.1 18.125C26.1 15.515 24.215 13.34 21.605 13.05Z"/>
  </symbol>
  <symbol xmlns="http://www.w3.org/2000/svg" viewBox="0 0 448 512" id="menu">
    <path  d="M16 132h416c8.837 0 16-7.163 16-16V76c0-8.837-7.163-16-16-16H16C7.163 60 0 67.163 0 76v40c0 8.837 7.163 16 16 16zm0 160h416c8.837 0 16-7.163 16-16v-40c0-8.837-7.163-16-16-16H16c-8.837 0-16 7.163-16 16v40c0 8.837 7.163 16 16 16zm0 160h416c8.837 0 16-7.163 16-16v-40c0-8.837-7.163-16-16-16H16c-8.837 0-16 7.163-16 16v40c0 8.837 7.163 16 16 16z"></path>
  </symbol>
  <symbol xmlns="http://www.w3.org/2000/svg" viewBox="0 0 512 512" id="close-menu">
    <path d="M256 8C119 8 8 119 8 256s111 248 248 248 248-111 248-248S393 8 256 8zm0 448c-110.5 0-200-89.5-200-200S145.5 56 256 56s200 89.5 200 200-89.5 200-200 200zm101.8-262.2L295.6 256l62.2 62.2c4.7 4.7 4.7 12.3 0 17l-22.6 22.6c-4.7 4.7-12.3 4.7-17 0L256 295.6l-62.2 62.2c-4.7 4.7-12.3 4.7-17 0l-22.6-22.6c-4.7-4.7-4.7-12.3 0-17l62.2-62.2-62.2-62.2c-4.7-4.7-4.7-12.3 0-17l22.6-22.6c4.7-4.7 12.3-4.7 17 0l62.2 62.2 62.2-62.2c4.7-4.7 12.3-4.7 17 0l22.6 22.6c4.7 4.7 4.7 12.3 0 17z"></path>
  </symbol>
  <symbol  xmlns="http://www.w3.org/2000/svg" viewBox="0 0 32 32" id="apple-logo">
    <path d="M16 2C8.26625 2 2 8.26625 2 16C2 23.7337 8.26625 30 16 30C23.7337 30 30 23.7337 30 16C30 8.26625 23.7337 2 16 2ZM10.6875 22.1181C10.6016 22.2647 10.4786 22.386 10.3309 22.4699C10.1833 22.5538 10.0161 22.5974 9.84625 22.5963C9.67314 22.5978 9.50303 22.551 9.355 22.4613C9.24478 22.3974 9.14826 22.3124 9.07098 22.2111C8.9937 22.1098 8.93718 21.9943 8.90466 21.8711C8.87214 21.748 8.86426 21.6196 8.88148 21.4934C8.8987 21.3672 8.94068 21.2456 9.005 21.1356L9.96062 19.5469C10.0089 19.4649 10.0778 19.3969 10.1605 19.3498C10.2431 19.3026 10.3367 19.2779 10.4319 19.2781H10.5731C11.2662 19.2781 11.7513 19.695 11.8925 20.0987L10.6875 22.1181ZM18.7781 18.9931L12.52 19H8.36063C8.22976 19.0006 8.10015 18.9745 7.97965 18.9235C7.85915 18.8724 7.75027 18.7974 7.65963 18.7031C7.56898 18.6087 7.49845 18.4968 7.45232 18.3744C7.40618 18.2519 7.38541 18.1214 7.39125 17.9906C7.41125 17.4656 7.86937 17.0681 8.39125 17.0681H11.4062L14.9806 10.9838L13.8231 9.01188C13.5625 8.5625 13.6781 7.97 14.125 7.6875C14.2352 7.61625 14.3586 7.56801 14.4879 7.54569C14.6172 7.52337 14.7497 7.52742 14.8773 7.5576C15.005 7.58779 15.1253 7.64348 15.2309 7.72133C15.3365 7.79918 15.4253 7.89759 15.4919 8.01062L16.1106 9.0675H16.1175L16.7369 8.01062C16.8036 7.89817 16.8922 7.8003 16.9975 7.72284C17.1028 7.64538 17.2227 7.58991 17.3499 7.55976C17.4771 7.52961 17.609 7.52538 17.7379 7.54732C17.8668 7.56927 17.9899 7.61694 18.1 7.6875C18.5444 7.97 18.6588 8.5625 18.3962 9.01375L17.2388 10.9856L16.1138 12.9038L13.6706 17.07V17.0769H17.2712C17.7225 17.0769 18.2881 17.3194 18.5169 17.7094L18.5369 17.75C18.7388 18.0931 18.8531 18.3288 18.8531 18.6719C18.8498 18.7833 18.825 18.893 18.78 18.995L18.7781 18.9931ZM23.6375 19H21.9431V19.0069L23.1819 21.1138C23.3151 21.3356 23.3559 21.601 23.2955 21.8526C23.235 22.1043 23.0782 22.3222 22.8587 22.4594C22.7066 22.5521 22.5319 22.6012 22.3538 22.6012C22.1844 22.6012 22.0179 22.5573 21.8705 22.4738C21.723 22.3904 21.5997 22.2702 21.5125 22.125L19.6819 19.0088L18.5444 17.0713L17.0769 14.5625C16.8643 14.2043 16.7488 13.7969 16.7417 13.3804C16.7345 12.9639 16.8361 12.5528 17.0362 12.1875C17.3262 11.6756 17.5481 11.5413 17.5481 11.5413L20.8125 17.0625H23.6194C24.1444 17.0625 24.595 17.4663 24.6194 17.9844C24.6244 18.1161 24.6028 18.2475 24.5558 18.3707C24.5088 18.4938 24.4374 18.6062 24.3458 18.7011C24.2543 18.7959 24.1445 18.8713 24.0231 18.9227C23.9017 18.974 23.7712 19.0003 23.6394 19H23.6375Z"></path>
  </symbol>
  <symbol  xmlns="http://www.w3.org/2000/svg" viewBox="0 0 80 80" id="cloud">
    <path d="M48.75 55.1797H42.9609V36.25C42.9609 35.9063 42.6797 35.625 42.3359 35.625H37.6484C37.3047 35.625 37.0234 35.9063 37.0234 36.25V55.1797H31.25C30.7265 55.1797 30.4375 55.7813 30.7578 56.1875L39.5078 67.2578C39.5663 67.3325 39.641 67.3929 39.7262 67.4345C39.8115 67.476 39.9051 67.4976 40 67.4976C40.0948 67.4976 40.1885 67.476 40.2737 67.4345C40.359 67.3929 40.4337 67.3325 40.4922 67.2578L49.2422 56.1875C49.5625 55.7813 49.2734 55.1797 48.75 55.1797Z" ></path>
    <path d="M63.3906 28.6484C59.8125 19.2109 50.6953 12.5 40.0156 12.5C29.3359 12.5 20.2188 19.2031 16.6406 28.6406C9.94531 30.3984 5 36.5 5 43.75C5 52.3828 11.9922 59.375 20.6172 59.375H23.75C24.0938 59.375 24.375 59.0938 24.375 58.75V54.0625C24.375 53.7188 24.0938 53.4375 23.75 53.4375H20.6172C17.9844 53.4375 15.5078 52.3906 13.6641 50.4922C11.8281 48.6016 10.8516 46.0547 10.9375 43.4141C11.0078 41.3516 11.7109 39.4141 12.9844 37.7812C14.2891 36.1172 16.1172 34.9062 18.1484 34.3672L21.1094 33.5938L22.1953 30.7344C22.8672 28.9531 23.8047 27.2891 24.9844 25.7812C26.149 24.2868 27.5286 22.973 29.0781 21.8828C32.2891 19.625 36.0703 18.4297 40.0156 18.4297C43.9609 18.4297 47.7422 19.625 50.9531 21.8828C52.5078 22.9766 53.8828 24.2891 55.0469 25.7812C56.2266 27.2891 57.1641 28.9609 57.8359 30.7344L58.9141 33.5859L61.8672 34.3672C66.1016 35.5078 69.0625 39.3594 69.0625 43.75C69.0625 46.3359 68.0547 48.7734 66.2266 50.6016C65.33 51.5033 64.2635 52.2183 63.0888 52.7051C61.914 53.1919 60.6544 53.4408 59.3828 53.4375H56.25C55.9062 53.4375 55.625 53.7188 55.625 54.0625V58.75C55.625 59.0938 55.9062 59.375 56.25 59.375H59.3828C68.0078 59.375 75 52.3828 75 43.75C75 36.5078 70.0703 30.4141 63.3906 28.6484Z" ></path>
  </symbol>
  <symbol  xmlns="http://www.w3.org/2000/svg" viewBox="0 0 47 54" id="cvs">
    <path d="M44.0258 18.9597H42.7512V12.8182C42.7501 12.7791 42.7464 12.7402 42.7399 12.7017C42.7417 12.455 42.6535 12.2161 42.4918 12.0296L32.2608 0.356737L32.2533 0.349227C32.192 0.283125 32.1225 0.225081 32.0465 0.176491L31.9788 0.135184C31.9138 0.0990936 31.8451 0.0701355 31.7739 0.0488159L31.7175 0.0300407C31.6394 0.010591 31.5592 0.000506586 31.4787 0H6.32996C5.18128 0 4.2488 0.933151 4.2488 2.07847V18.9578H2.97416C1.33104 18.9578 0 20.2871 0 21.9281V37.3768C0 39.0159 1.33292 40.3471 2.97416 40.3471H4.2488V50.9215C4.2488 52.0669 5.18128 53 6.32996 53H40.67C41.8168 53 42.7512 52.0669 42.7512 50.9215V40.3471H44.0258C45.6671 40.3471 47 39.0177 47 37.3768V21.9281C47 20.289 45.669 18.9597 44.0258 18.9597ZM6.32996 2.07847H30.4372V12.713C30.4372 13.2876 30.9034 13.7513 31.4787 13.7513H40.6719V18.9578H6.32996V2.07847ZM21.9001 30.5574C19.3734 29.6562 17.7058 28.2593 17.7058 26.0531C17.7058 23.464 19.8942 21.5057 23.4568 21.5057C25.1939 21.5057 26.4328 21.8436 27.3352 22.2698L26.5682 25.0167C25.5851 24.5385 24.5051 24.2925 23.4116 24.2976C21.9227 24.2976 21.2008 24.9942 21.2008 25.7602C21.2008 26.7291 22.0336 27.1553 24.0189 27.8988C26.7035 28.8901 27.9424 30.2852 27.9424 32.4256C27.9424 34.9716 26.0042 37.1327 21.8324 37.1327C20.0953 37.1327 18.3826 36.6595 17.5254 36.1864L18.2247 33.3719C19.4053 33.9739 20.7082 34.2976 22.0336 34.3182C23.6128 34.3182 24.4475 33.6629 24.4475 32.6734C24.4475 31.7272 23.7275 31.1883 21.9001 30.5574ZM3.99124 29.521C3.99124 24.3633 7.6892 21.5038 12.2877 21.5038C14.0699 21.5038 15.4216 21.8624 16.0308 22.1572L15.3088 24.8815C14.3956 24.4986 13.4134 24.3069 12.423 24.3183C9.71772 24.3183 7.59896 25.9611 7.59896 29.3389C7.59896 32.3561 9.40188 34.2713 12.4456 34.2713C13.5059 34.2713 14.6339 34.0704 15.3314 33.7756L15.8296 36.4774C15.2205 36.7684 13.7766 37.1308 11.9512 37.1308C6.69656 37.1327 3.99124 33.845 3.99124 29.521ZM40.67 50.362H6.32996V40.3489H40.67V50.362ZM37.8914 36.9074H33.8776L29.0084 21.7291H32.774L34.6221 28.1485C35.1391 29.9716 35.6128 31.684 35.9738 33.5747H36.0415C36.4259 31.7704 36.8844 29.9827 37.4158 28.2161L39.3559 21.731H43.0069L37.8914 36.9074Z" ></path>
  </symbol>
  <symbol  xmlns="http://www.w3.org/2000/svg" viewBox="0 0 14 14" id="fb">
    <path d="M10.5 1.16663H8.75C7.97645 1.16663 7.23458 1.47392 6.6876 2.0209C6.14062 2.56788 5.83333 3.30974 5.83333 4.08329V5.83329H4.08333V8.16663H5.83333V12.8333H8.16666V8.16663H9.91666L10.5 5.83329H8.16666V4.08329C8.16666 3.92858 8.22812 3.78021 8.33752 3.67081C8.44692 3.56142 8.59529 3.49996 8.75 3.49996H10.5V1.16663Z"></path>
  </symbol>
  <symbol  xmlns="http://www.w3.org/2000/svg" viewBox="0 0 32 32" id="ion-logo-google-playstore">
    <path d="M3 3.71815V28.2807C3.00016 28.3339 3.01606 28.386 3.04569 28.4303C3.07532 28.4746 3.11737 28.5091 3.16656 28.5296C3.21575 28.5501 3.2699 28.5556 3.32222 28.5455C3.37453 28.5353 3.42268 28.5099 3.46062 28.4725L16.25 16L3.46062 3.52628C3.42268 3.48886 3.37453 3.46349 3.32222 3.45333C3.2699 3.44317 3.21575 3.44868 3.16656 3.46917C3.11737 3.48966 3.07532 3.52422 3.04569 3.56852C3.01606 3.61281 3.00016 3.66486 3 3.71815Z"></path>
    <path d="M21.6125 10.875L5.57627 2.04L5.56627 2.03438C5.29002 1.88438 5.02752 2.25813 5.25377 2.47563L17.8244 14.4956L21.6125 10.875Z" ></path>
    <path d="M5.25499 29.5244C5.02749 29.7419 5.28999 30.1156 5.56749 29.9656L5.57749 29.96L21.6125 21.125L17.8244 17.5031L5.25499 29.5244Z" ></path>
    <path d="M28.0863 14.4375L23.6081 11.9713L19.3975 16L23.6081 20.0269L28.0863 17.5625C29.3044 16.8894 29.3044 15.1106 28.0863 14.4375Z" ></path>
  </symbol>
  <symbol  xmlns="http://www.w3.org/2000/svg" viewBox="0 0 14 14" id="linkedin">
    <path d="M9.33334 4.66663C10.2616 4.66663 11.1518 5.03538 11.8082 5.69175C12.4646 6.34813 12.8333 7.23837 12.8333 8.16663V12.25H10.5V8.16663C10.5 7.85721 10.3771 7.56046 10.1583 7.34167C9.9395 7.12288 9.64276 6.99996 9.33334 6.99996C9.02392 6.99996 8.72717 7.12288 8.50838 7.34167C8.28959 7.56046 8.16667 7.85721 8.16667 8.16663V12.25H5.83334V8.16663C5.83334 7.23837 6.20208 6.34813 6.85846 5.69175C7.51484 5.03538 8.40508 4.66663 9.33334 4.66663Z" ></path>
    <path d="M1.16667 5.25H3.5V12.25H1.16667V5.25Z"></path>
    <path d="M2.33333 3.49996C2.97767 3.49996 3.5 2.97763 3.5 2.33329C3.5 1.68896 2.97767 1.16663 2.33333 1.16663C1.689 1.16663 1.16667 1.68896 1.16667 2.33329C1.16667 2.97763 1.689 3.49996 2.33333 3.49996Z" ></path>
  </symbol>
  <symbol  xmlns="http://www.w3.org/2000/svg" viewBox="0 0 70 70" id="pdf">
    <path d="M23.7229 35.6696C23.7229 34.2157 22.7128 33.3472 20.9318 33.3472C20.2049 33.3472 19.7133 33.418 19.455 33.4868V38.1565C19.7611 38.2253 20.136 38.2502 20.6506 38.2502C22.5502 38.2502 23.7229 37.288 23.7229 35.6696Z" ></path>
    <path d="M34.7532 33.3931C33.9555 33.3931 33.439 33.4639 33.1329 33.5346V43.8801C33.439 43.9509 33.9306 43.9509 34.3764 43.9509C37.6132 43.9739 39.7251 42.1909 39.7251 38.4147C39.75 35.1301 37.8255 33.3931 34.7532 33.3931Z" ></path>
    <path d="M55.8861 27.3155H54.5891V21.0581C54.588 21.0184 54.5842 20.9787 54.5776 20.9395C54.5797 20.6878 54.4907 20.4439 54.327 20.2527L43.9146 8.36156L43.9069 8.3539C43.7747 8.21041 43.6061 8.10532 43.4191 8.04974L43.3617 8.03061C43.2822 8.01079 43.2007 8.00052 43.1187 8H17.5286C16.3598 8 15.4109 8.95076 15.4109 10.1177V27.3155H14.1139C12.442 27.3155 11.0876 28.6699 11.0876 30.3419V46.082C11.0876 47.752 12.4439 49.1084 14.1139 49.1084H15.4109V59.8843C15.4109 61.0512 16.3598 62.002 17.5286 62.002H52.4714C53.6383 62.002 54.5891 61.0512 54.5891 59.8843V49.1084H55.8861C57.558 49.1084 58.9124 47.752 58.9124 46.082V30.3419C58.9124 28.6699 57.5561 27.3155 55.8861 27.3155ZM17.5286 10.1177H42.059V20.9529C42.059 21.5383 42.5334 22.0108 43.1187 22.0108H52.4733V27.3155H17.5286V10.1177ZM43.5262 38.2961C43.5262 41.3225 42.4243 43.4115 40.8958 44.7008C39.2315 46.0839 36.6987 46.742 33.6016 46.742C31.7479 46.742 30.4356 46.6234 29.5422 46.5086V30.977C30.8564 30.7666 32.5686 30.6499 34.3764 30.6499C37.3778 30.6499 39.3253 31.1893 40.8499 32.339C42.4932 33.5576 43.5262 35.505 43.5262 38.2961ZM15.9102 46.5794V30.977C17.0121 30.7895 18.5616 30.6499 20.7424 30.6499C22.9481 30.6499 24.5206 31.0726 25.5747 31.9163C26.5828 32.714 27.2619 34.0282 27.2619 35.5758C27.2619 37.1254 26.7473 38.4377 25.8081 39.3291C24.5876 40.4788 22.7817 40.9953 20.6697 40.9953C20.2011 40.9953 19.7783 40.9724 19.4512 40.9246V46.5794H15.9102ZM52.4714 59.3104H17.5286V49.1084H52.4714V59.3104ZM55.5398 33.6992H49.4622V37.3128H55.14V40.2225H49.4622V46.5794H45.8754V30.7666H55.5398V33.6992Z" ></path>
  </symbol>
  <symbol  xmlns="http://www.w3.org/2000/svg" viewBox="0 0 66 66" id="search">
    <path fill-rule="evenodd" clip-rule="evenodd" d="M33.9732 3.48691L55.8744 10.9506C56.4094 11.1375 56.8477 11.7498 56.8348 12.317V43.4092C56.8348 43.9828 56.4674 44.7305 56.0227 45.0785L33.8057 62.3906C33.5865 62.5646 33.29 62.6549 32.9936 62.6549C32.6971 62.6549 32.407 62.5646 32.1814 62.3906L9.96445 45.0785C9.51973 44.724 9.15234 43.9764 9.15234 43.4092V12.317C9.15234 11.7498 9.59063 11.1311 10.1256 10.9506L32.0268 3.48691C32.291 3.39668 32.6455 3.35156 33 3.35156C33.3545 3.35156 33.709 3.39668 33.9732 3.48691ZM33 57.1377L52.207 42.1717V14.6115L33 8.06309L13.793 14.6115V42.1717L33 57.1377Z" ></path>
    <path fill-rule="evenodd" clip-rule="evenodd" d="M25.9682 34.0828L20.973 39.0779C20.8771 39.1748 20.8233 39.3057 20.8233 39.4421C20.8233 39.5785 20.8771 39.7093 20.973 39.8062L23.1645 41.9977C23.3643 42.1975 23.693 42.1975 23.8928 41.9977L28.8879 37.0025C32.4779 39.2648 37.2732 38.833 40.3992 35.707C44.0279 32.0783 44.0279 26.2002 40.3992 22.5715C36.7705 18.9428 30.8924 18.9428 27.2637 22.5715C24.1377 25.6975 23.7059 30.4992 25.9682 34.0828ZM37.4795 25.4912C35.4686 23.4738 32.2008 23.4738 30.1834 25.4912C28.166 27.5086 28.1725 30.7699 30.1834 32.7873C32.1943 34.8047 35.4621 34.8047 37.4795 32.7873C39.4969 30.7764 39.4969 27.5086 37.4795 25.4912Z" ></path>
  </symbol>
  <symbol  xmlns="http://www.w3.org/2000/svg" viewBox="0 0 14 14" id="twitter">
    <path d="M13.4167 1.75001C12.8581 2.14403 12.2396 2.4454 11.585 2.64251C11.2337 2.23855 10.7668 1.95224 10.2474 1.8223C9.7281 1.69235 9.18137 1.72504 8.68122 1.91594C8.18106 2.10684 7.75159 2.44674 7.45091 2.88967C7.15022 3.33261 6.99283 3.8572 7 4.39251V4.97584C5.97487 5.00242 4.95908 4.77506 4.04309 4.31402C3.1271 3.85297 2.33935 3.17254 1.75 2.33334C1.75 2.33334 -0.583331 7.58334 4.66667 9.91667C3.46531 10.7322 2.03418 11.141 0.583336 11.0833C5.83333 14 12.25 11.0833 12.25 4.37501C12.2495 4.21252 12.2338 4.05044 12.2033 3.89084C12.7987 3.30371 13.2188 2.56242 13.4167 1.75001Z" ></path>
  </symbol>
  <symbol  xmlns="http://www.w3.org/2000/svg" viewBox="0 0 24 24" id="windows-logo">
    <path d="M0 3.449L9.75 2.1V11.551H0V3.449ZM10.949 1.949L24 0V11.4H10.949V1.949ZM0 12.6H9.75V22.051L0 20.699V12.6ZM10.949 12.6H24V24L11.1 22.199" ></path>
  </symbol>
</svg>